# xmcd
#
# Track frame offsets: 
#        182
#        18755
#        36955
#        45875
#        63977
#        79615
#        91630
#        102320
#        127347
#        144062
#        164285
#
# Disc length: 2386 seconds
#
# Revision: 2
# Processed by: cddbd v1.5.2PL0 Copyright (c) Steve Scherf et al.
# Submitted via: ExactAudioCopy v0.99pb5
#
DISCID=7b09500b
DTITLE=Various Artist - Memphis Archives - Memphis Blues Caravan Vol I
DYEAR=1994
DGENRE=Blues
TTITLE0=Sam Chatmon, The Mississippi Sheik With Greg "Fingers" Taylor 
TTITLE0=/  Forgive Me Too - Blues
TTITLE1=Big Sam Clark - I Fell In Love With This Woman
TTITLE2=Sonny Boy Nelson -  Pony Blues
TTITLE3=Earl Bell -  Travelin' Blues
TTITLE4=Sleepy John Estes (With Hammie Nixon) -  President Kennedy Sta
TTITLE4=yed Away Too Long
TTITLE5=Sleepy John Estes (With Hammie Nixon) -  Yellow Yam Blues
TTITLE6=Bukka White -  Bed Springs Blues
TTITLE7=Furry Lewis, Mary Tell - Blues "Mother" Story
TTITLE8=Harmonica Frank -  Goin' Away Happy
TTITLE9=Houston Stackhouse (With Joe Willie Wilkins and His King Biscuit
TTITLE9=Boys) -  Crying Won't Help You
TTITLE10=Joe Willie Wilkins and His King Biscuit Boys -  Me and The Devil 
TTITLE10=Blues
EXTD=
EXTT0=
EXTT1=
EXTT2=
EXTT3=
EXTT4=
EXTT5=
EXTT6=
EXTT7=
EXTT8=
EXTT9=
EXTT10=
PLAYORDER=
